<?xml version="1.0" encoding="UTF-8"?>
<svg width="30px" height="30px" viewBox="0 0 30 30" version="1.1" xmlns="http://www.w3.org/2000/svg" xmlns:xlink="http://www.w3.org/1999/xlink">
    <!-- Generator: Sketch 59.1 (86144) - https://sketch.com -->
    <title>icon/30/Current/rocket</title>
    <desc>Created with Sketch.</desc>
    <defs>
        <path d="M30,15 C30,23.284 23.284,30 15,30 C6.716,30 0,23.284 0,15 C0,6.716 6.716,0 15,0 C23.284,0 30,6.716 30,15" id="path-1"></path>
        <path d="M16.98,4.96895142 C16.98,6.04609428 16.1071429,6.91895142 15.03,6.91895142 C13.9528571,6.91895142 13.08,6.04609428 13.08,4.96895142 C13.08,3.89180856 13.9528571,3.01895142 15.03,3.01895142 C16.1071429,3.01895142 16.98,3.89180856 16.98,4.96895142 M6.58,13.42038 C6.83857143,13.4589514 7.11285714,13.4889514 7.40714286,13.5089514 C7.55714286,13.52038 7.69571429,13.5946657 7.78571429,13.7146657 C9.16142857,15.53038 9.65,17.8432371 9.16857143,20.00038 C9.51,19.7718086 9.82714286,19.51038 10.1171429,19.22038 C11.6485714,17.69038 12.2971429,15.49038 11.8514286,13.3360943 C11.8,13.0875228 11.9357143,12.8375228 12.1714286,12.7446657 C13.7771429,12.1160943 15.2071429,11.1818086 16.4228571,9.96609428 C19.1214286,7.26752285 20.4257143,3.52609428 19.8771429,0.121808561 C16.4842857,-0.425334296 12.7128571,0.896094276 10.0342857,3.57609428 C8.81714286,4.79180856 7.88142857,6.22180856 7.25428571,7.82609428 C7.16142857,8.06180856 6.91,8.19609428 6.66285714,8.14752285 C4.53142857,7.70895142 2.3,8.36037999 0.78,9.88037999 C0.488571429,10.1718086 0.227142857,10.4875228 -6.62581101e-12,10.8275228 C2.12857143,10.3560943 4.50714286,10.8646657 6.28428571,12.2132371 C6.40428571,12.3046657 6.47857143,12.4418086 6.49,12.59038 C6.51142857,12.8932371 6.54142857,13.1675228 6.58,13.42038" id="path-3"></path>
    </defs>
    <g id="icon/30/Current/rocket" stroke="none" stroke-width="1" fill="none" fill-rule="evenodd">
        <mask id="mask-2" fill="white">
            <use xlink:href="#path-1"></use>
        </mask>
        <use id="fill" fill="#9B9B9B" xlink:href="#path-1"></use>
        <g id="Color/Dusk-Blue" mask="url(#mask-2)" fill="#336278">
            <rect id="color" x="0" y="0" width="30" height="30"></rect>
        </g>
        <g id="Group" mask="url(#mask-2)">
            <g transform="translate(3.999571, 6.000049)">
                <mask id="mask-4" fill="white">
                    <use xlink:href="#path-3"></use>
                </mask>
                <use id="Mask" stroke="none" fill="#7ED321" fill-rule="evenodd" xlink:href="#path-3"></use>
                <path d="M4.21457143,12.54938 C2.69314286,14.0722371 1.92171429,16.09938 2.10457143,18.04938 C4.03885714,18.2350943 6.07885714,17.4579514 7.60171429,15.9365228 L6.57171429,14.9065228 C6.57171429,14.9065228 5.09742857,15.4522371 4.89742857,15.2536657 C4.69885714,15.0536657 5.24457143,13.57938 5.24457143,13.57938 L4.21457143,12.54938 Z" id="Path" stroke="none" fill="#FFFFFF" fill-rule="evenodd"></path>
            </g>
        </g>
    </g>
</svg>