<svg width="130" height="50" xmlns="http://www.w3.org/2000/svg"><path d="M121.5 31.542c1.348-.021 2.45-.41 3.303-1.168.852-.758 1.29-1.802 1.31-3.13-.02-1.33-.458-2.384-1.31-3.163-.852-.777-1.956-1.179-3.303-1.198a4.118 4.118 0 0 0-1.912.512c-.579.322-1.027.713-1.344 1.17v5.39c.656 1.06 1.74 1.59 3.256 1.59v-.003zM84.88 24.564v5.391c.885 1.06 1.995 1.584 3.332 1.573 1.338-.01 2.423-.394 3.256-1.152.83-.758 1.258-1.802 1.278-3.13-.02-1.33-.448-2.384-1.278-3.163-.833-.777-1.923-1.178-3.271-1.198a4.174 4.174 0 0 0-1.943.513c-.579.321-1.038.712-1.374 1.167zm-27.175 5.391v-5.392c-.968-1.122-2.117-1.676-3.444-1.666-1.327.01-2.396.4-3.208 1.169-.81.766-1.216 1.82-1.216 3.161 0 1.338.405 2.387 1.213 3.144.813.759 1.88 1.149 3.209 1.17 1.411 0 2.56-.53 3.444-1.59l.002.004zM18.87 35.469c2.254-2.784 3.602-5.223 4.044-7.32a6.7 6.7 0 0 0 .127-2.585c0-.478-.189-.987-.568-1.527-.907-1.246-2.109-1.868-3.603-1.868-1.621 0-2.812.622-3.57 1.868-.359.457-.601.966-.727 1.527 0 1.038.044 1.9.127 2.586.631 2.244 2.02 4.683 4.17 7.322v-.003zm44.995-15.733v15.017h3.92V19.735h-3.92v.001zm44.553 15.017h3.92v-8.91c0-1.245-.16-2.268-.475-3.068a4.607 4.607 0 0 0-1.548-2.007c-1.224-.937-2.611-1.403-4.171-1.403-1.77 0-3.16.55-4.172 1.651v-.686a.56.56 0 0 0-.189-.405c-.126-.124-.253-.186-.379-.186h-3.19v15.016h4.043V24.288c.78-.936 1.833-1.403 3.16-1.403 1.074-.021 1.843.233 2.305.763.465.529.696 1.406.696 2.633v8.472zM77.705 19.362c-.652.022-1.322.187-2.005.496-.685.313-1.227.697-1.628 1.155v-.686c0-.394-.19-.592-.568-.592h-3.256v15.016h3.824V24.285a4.637 4.637 0 0 1 1.343-.982c.494-.24.968-.375 1.42-.406a8.242 8.242 0 0 1 1.266 0c.389.032.71.078.964.14l.347.094v-3.52c-.38-.167-.948-.249-1.707-.249zm-20.38 1.245l.38.406v-.686c0-.394.19-.592.568-.592h3.321v15.016h-3.321c-.378 0-.568-.177-.568-.528v-.718c-.084.124-.221.28-.41.467-.233.207-.68.457-1.344.748-.663.291-1.406.446-2.229.467-2.316-.043-4.206-.798-5.67-2.274-1.464-1.474-2.218-3.365-2.26-5.67.045-2.284.796-4.16 2.26-5.621 1.464-1.466 3.354-2.219 5.67-2.261.823.022 1.56.162 2.214.42.655.26 1.119.534 1.393.824l-.003.002zm64.776-1.246c2.275.04 4.15.793 5.624 2.257 1.475 1.463 2.233 3.339 2.275 5.622-.042 2.306-.8 4.198-2.275 5.67-1.475 1.475-3.35 2.234-5.624 2.275-.843-.022-1.575-.162-2.196-.42-.623-.26-1.06-.546-1.31-.858l-.35-.403v.716c0 .146-.063.27-.188.375a.635.635 0 0 1-.411.156h-3.318V12.54h3.915v8.474l.127-.188c.066-.083.212-.218.444-.404.231-.184.484-.351.758-.497.273-.145.637-.275 1.09-.388a5.796 5.796 0 0 1 1.438-.173l.001-.002zm-33.21 0c2.212.04 4.045.793 5.498 2.257 1.453 1.463 2.21 3.339 2.273 5.622-.063 2.306-.82 4.198-2.273 5.67-1.453 1.475-3.288 2.234-5.5 2.275-.821-.022-1.558-.162-2.212-.42-.652-.26-1.125-.546-1.42-.858l-.38-.403v.716c0 .354-.19.531-.567.531h-3.32V12.54h3.888v8.474c.105-.125.258-.286.459-.483.199-.198.636-.436 1.31-.717.674-.28 1.421-.432 2.244-.453zm-21.169-2.492a2.42 2.42 0 0 0 .743-1.823c-.011-.716-.26-1.308-.743-1.775-.486-.467-1.097-.702-1.835-.702-.736 0-1.342.235-1.816.702-.473.467-.71 1.065-.71 1.791 0 .727.237 1.33.71 1.807.474.477 1.075.723 1.802.732.726.01 1.342-.233 1.847-.732h.002zM35.143 37.306a5.357 5.357 0 0 0-.474-2.96c-.148-.54-.337-.966-.568-1.277l-.852-2.12c-4.194-8.723-7.163-14.727-8.911-18.007l-.129-.248-.474-.81c-.233-.416-.422-.77-.568-1.057-.191-.418-.56-.979-1.107-1.683-.969-1.061-2.032-1.591-3.192-1.591-1.285 0-2.39.529-3.317 1.59-.066.081-.23.325-.492.73a9.83 9.83 0 0 1-.68.95c-.147.396-.42 1.018-.82 1.87l-.158.25A364.083 364.083 0 0 0 4.492 30.95l-.126.155c-.085.145-.369.799-.853 1.964l-.253.529c-.148.291-.251.54-.317.747-.336 1.06-.431 2.082-.284 3.068.148.987.557 1.91 1.232 2.773a5.46 5.46 0 0 0 2.497 1.822c.907.415 1.94.55 3.1.406 1.157-.146 2.179-.478 3.064-.997 1.307-.748 2.834-2.067 4.583-3.957-2.57-2.907-4.203-5.836-4.898-8.784-.273-1.392-.358-2.525-.253-3.396.317-1.247.706-2.19 1.169-2.835 1.39-1.89 3.297-2.836 5.72-2.836a7.416 7.416 0 0 1 3.207.78 7.474 7.474 0 0 1 2.545 2.056c.568 1.057.916 2.087 1.043 3.084.125.997.073 2.046-.159 3.146-.634 2.637-2.276 5.566-4.93 8.784 1.496 1.705 3.032 3.023 4.612 3.958a8.44 8.44 0 0 0 3.065.997c1.116.144 2.17.021 3.16-.375a5.743 5.743 0 0 0 2.463-1.854 6.435 6.435 0 0 0 1.264-2.88zm1.99-3.801c.569 1.516.706 2.938.411 4.268a8.608 8.608 0 0 1-1.704 4.003 8.589 8.589 0 0 1-3.446 2.663c-1.158.374-2.265.561-3.318.561h-1.169c-1.6-.229-2.939-.716-4.013-1.464-1.726-.853-3.402-2.223-5.025-4.111-1.79 1.888-3.463 3.258-5.023 4.11-1.223.769-2.6 1.258-4.14 1.465H8.665a9.833 9.833 0 0 1-3.318-.561c-1.432-.602-2.611-1.49-3.54-2.663A8.458 8.458 0 0 1 .07 37.773c-.168-1.288-.033-2.711.41-4.268l.695-1.59c.252-.435.536-1.09.853-1.963v-.155c3.705-7.578 6.74-13.559 9.1-17.94l.125-.314a16.82 16.82 0 0 0 .852-1.866l.696-1.123c.107-.167.238-.354.397-.56.157-.209.32-.396.489-.562C15.037 5.812 16.77 5 18.887 5s3.827.81 5.134 2.43c.105.124.601.872 1.486 2.244.083.205.251.518.505.934l.474.934.126.313a284.491 284.491 0 0 1 8.912 17.942v.158c.19.27.401.644.634 1.122l.41.842c.041.207.142.482.299.824.158.342.248.597.269.763l-.002-.001z" fill="#4D4F53" fill-rule="evenodd"/></svg>