<svg width="124" height="53" xmlns="http://www.w3.org/2000/svg"><path d="M39.78 9.758H2.652V2.714H39.78v7.044zM42.433 0H0v12.47h42.433V0v.001zm-39.78 33.08H0V20.613h2.652v4.929h4.74v-4.929h2.651v12.468h-2.65v-5.168h-4.74v5.168zm11.408-5.466h3.158c-.059-.917-.428-1.557-1.461-1.557-.782 0-1.464.34-1.697 1.557zm2.007 5.667c-2.69 0-4.523-1.736-4.523-4.589 0-2.774 1.794-4.69 4.172-4.69 2.594 0 3.881 1.776 3.881 4.431v.998h-5.537c.312 1.376 1.365 1.734 2.418 1.734.916 0 1.579-.199 2.398-.719h.098v2.056c-.702.522-1.697.782-2.907.782v-.003zm10.453-5.428l-1.366 5.23h-2.318L20.185 24.3v-.099h2.535l1.442 5.25 1.368-5.25h2.066l1.385 5.25 1.464-5.25h2.436v.1l-2.653 8.78h-2.323l-1.384-5.226v-.002zm10.667 5.43c-2.106 0-2.964-.859-2.964-2.874v-9.798h2.573v9.618c0 .62.234.84.741.84.178 0 .432-.06.587-.119h.04v2.173c-.215.081-.585.16-.976.16zm4.213-5.667h3.16c-.06-.917-.431-1.557-1.466-1.557-.778 0-1.461.34-1.695 1.557h.001zm2.01 5.667c-2.693 0-4.525-1.736-4.525-4.589 0-2.774 1.794-4.69 4.172-4.69 2.595 0 3.882 1.776 3.882 4.431v.998h-5.539c.312 1.376 1.365 1.734 2.418 1.734.918 0 1.58-.199 2.4-.719h.097v2.056c-.702.522-1.695.782-2.906.782l.001-.003zm14.098-9.08h1.91v2.115h-1.91v3.612c0 .778.293 1.139 1.072 1.139.215 0 .487-.02.782-.122h.056v2.076c-.33.122-.838.26-1.578.26-2.088 0-2.907-.979-2.907-3.234v-3.73h-3.299v3.61c0 .78.293 1.14 1.072 1.14.213 0 .487-.02.78-.122h.058v2.076c-.331.122-.839.26-1.579.26-2.087 0-2.907-.979-2.907-3.234v-3.73h-1.321v-2.116h1.325v-2.433h2.576v2.433h3.294v-2.433h2.573v2.433h.003zm10.583 2.536c1.345 0 1.99-.78 1.99-1.896 0-1.157-.645-1.936-1.99-1.936h-1.678v3.832h1.678zm4.68-1.896c0 2.714-1.775 4.19-4.466 4.19h-1.892v4.051h-2.65V20.61h4.544c2.691 0 4.466 1.477 4.466 4.231l-.002.003zm5.653 5.447v-.758c-.389-.219-.895-.299-1.42-.299-.84 0-1.347.317-1.347 1.036 0 .738.505 1.058 1.265 1.058.72 0 1.269-.38 1.502-1.039v.002zm.08 1.916c-.566.698-1.404 1.038-2.302 1.038-1.695 0-3.081-1.06-3.081-2.935 0-1.736 1.385-2.893 3.374-2.893.623 0 1.268.098 1.93.297v-.158c0-.959-.526-1.377-1.91-1.377-.878 0-1.715.26-2.438.68h-.098v-2.116c.663-.398 1.834-.739 2.984-.739 2.613 0 4.036 1.277 4.036 3.511v5.567h-2.497v-.877l.001.002zm3.802-3.55c0-2.856 1.97-4.65 4.544-4.65.917 0 1.775.198 2.418.677v2.254h-.101c-.565-.437-1.228-.698-1.987-.698-1.287 0-2.263.9-2.263 2.416 0 1.515.976 2.393 2.263 2.393.76 0 1.421-.26 1.988-.7h.1v2.256c-.645.477-1.503.677-2.42.677-2.574 0-4.544-1.775-4.544-4.63l.002.004zm11.155.396v4.031h-2.574V20.61h2.573v7.103l2.592-3.513h2.926v.102l-3.12 4.03 3.12 4.65v.1h-2.946l-2.574-4.03.003.001zm11.29 1.236v-.758c-.39-.219-.897-.299-1.424-.299-.836 0-1.343.317-1.343 1.036 0 .738.507 1.058 1.267 1.058.722 0 1.268-.38 1.502-1.039l-.002.002zm.078 1.916c-.564.698-1.403 1.038-2.299 1.038-1.698 0-3.082-1.06-3.082-2.935 0-1.736 1.383-2.893 3.374-2.893.624 0 1.266.098 1.929.297v-.158c0-.959-.526-1.377-1.91-1.377-.876 0-1.716.26-2.436.68h-.099v-2.116c.663-.398 1.833-.739 2.984-.739 2.614 0 4.038 1.277 4.038 3.511v5.567h-2.497v-.877l-.002.002zm6.826-6.566c.467-.978 1.15-1.536 2.107-1.536.352 0 .703.081.838.16v2.514h-.096c-.292-.119-.643-.198-1.13-.198-.8 0-1.423.48-1.638 1.396v5.107h-2.574v-8.879h2.497v1.437l-.004-.001zm9.771 4.432v-2.853c-.428-.64-.993-.919-1.638-.919-1.13 0-1.89.838-1.89 2.355 0 1.513.761 2.333 1.89 2.333.645 0 1.21-.28 1.639-.918l-.001.002zm.078 2.095c-.546.718-1.404 1.117-2.573 1.117-2.223 0-3.647-2.074-3.647-4.63 0-2.553 1.421-4.65 3.644-4.65 1.132 0 1.949.362 2.497 1.02v-4.41H124v12.468h-2.497v-.916l.002.001zM0 37.156h7.527v1.515H1.696v3.81h5.285v1.476H1.696v4.15h5.831v1.517H0V37.156zm13.748 3.51c1.928 0 3.002 1.299 3.002 3.431v5.528h-1.618v-5.487c0-1.138-.566-1.956-1.794-1.956-1.015 0-1.872.66-2.165 1.596v5.848H9.554v-8.78h1.619v1.277c.507-.818 1.366-1.457 2.575-1.457zm7.353.181h2.202v1.417h-2.202v4.729c0 1 .507 1.34 1.423 1.34.253 0 .525-.04.72-.122h.061v1.417c-.235.102-.568.18-1.015.18-2.01 0-2.808-.938-2.808-2.653v-4.89H18v-1.417h1.482v-2.335h1.62v2.333l-.001.001zm4.914 3.53h4.271c-.059-1.296-.683-2.294-2.01-2.294-1.228 0-2.027.939-2.26 2.294zm2.555 5.428c-2.517 0-4.233-1.716-4.233-4.47 0-2.753 1.6-4.67 3.921-4.67 2.36 0 3.588 1.736 3.588 4.311v.759h-5.89c.175 1.776 1.287 2.633 2.827 2.633.956 0 1.638-.219 2.398-.798h.06v1.46c-.701.558-1.62.777-2.672.777v-.002zm6.806-7.602c.37-.938 1.19-1.496 2.125-1.496.371 0 .702.06.838.142v1.635h-.06c-.234-.12-.624-.179-1.016-.179-.875 0-1.617.599-1.89 1.596v5.726h-1.62v-8.779h1.62v1.356h.003zm8.187 6.105c1.6 0 2.538-1.296 2.538-3.073 0-1.753-.938-3.07-2.538-3.07-.877 0-1.695.539-2.124 1.396v3.375c.428.857 1.248 1.375 2.125 1.375v-.003zm.274-7.642c2.554 0 3.918 2.137 3.918 4.57 0 2.436-1.364 4.57-3.918 4.57-1.055 0-1.948-.557-2.398-1.157V53H39.82V40.847h1.618v.998c.449-.62 1.345-1.178 2.398-1.178zm7.45 1.538c.37-.938 1.188-1.496 2.125-1.496.371 0 .702.06.838.142v1.635h-.058c-.233-.12-.626-.179-1.015-.179-.879 0-1.619.599-1.893 1.596v5.726h-1.618v-8.78h1.62v1.356h.001zm5.304-4.91c.565 0 1.033.46 1.033 1.038 0 .579-.467 1.038-1.033 1.038a1.05 1.05 0 0 1-1.036-1.038c0-.579.49-1.037 1.036-1.037zm-.8 12.331h1.62v-8.779h-1.62v8.78zm7.391-5.127c1.228.398 2.593.917 2.593 2.593 0 1.794-1.441 2.71-3.292 2.71-1.132 0-2.264-.277-2.906-.796v-1.576h.078c.72.677 1.792.977 2.806.977.917 0 1.736-.36 1.736-1.117 0-.779-.68-.958-2.028-1.416-1.208-.4-2.555-.858-2.555-2.514 0-1.696 1.365-2.694 3.101-2.694 1.015 0 1.911.222 2.632.721v1.597h-.058c-.7-.579-1.52-.919-2.533-.919-1.015 0-1.58.46-1.58 1.077 0 .7.624.898 2.01 1.358l-.004-.001zm5.678-.12h4.269c-.058-1.297-.682-2.295-2.01-2.295-1.228 0-2.026.939-2.26 2.294zm2.554 5.427c-2.518 0-4.233-1.716-4.233-4.47 0-2.753 1.6-4.67 3.92-4.67 2.36 0 3.588 1.736 3.588 4.311v.759h-5.887c.176 1.776 1.287 2.633 2.828 2.633.956 0 1.638-.219 2.398-.798h.058v1.46c-.7.558-1.619.777-2.671.777l-.001-.002z" fill="#4D4F53" fill-rule="evenodd"/></svg>