<svg width="152" height="50" xmlns="http://www.w3.org/2000/svg"><g fill="#4D4F53" fill-rule="evenodd"><path d="M28.808 22.066a9.401 9.401 0 0 1-4.745 1.317 8.353 8.353 0 0 1-2.955-.548c-1.581 1.538-3.269 2.526-4.22 3.074a9.549 9.549 0 0 0 5.695 4.28c.74.219 1.477.33 2.321.33 1.688 0 3.27-.44 4.64-1.208.21-.768.317-1.646.317-2.524.105-1.644-.212-3.29-1.055-4.717l.002-.004zM27.333 9.888c-.107 0-.212-.11-.315-.11.103 0 .208.11.315.11z"/><path d="M28.267 10.037c-.32 1.904-1.068 3.594-2.24 4.862.106.319.106.742.106 1.058 0 2.221-1.174 4.124-2.56 5.71.428 0 .854.107 1.28.107 2.03 0 4.162-.633 5.87-2.008 2.026-1.586 3.199-3.807 3.625-5.921a10.303 10.303 0 0 0-5.76-3.702c-.106-.106-.212-.211-.318-.106h-.003zM26.773 8.45c0-2.537-.96-4.863-2.56-6.449h-.106c-2.24 0-4.268.846-5.973 2.432 1.706 1.798 2.345 4.124 2.345 6.344v.527c.428-.106.746-.106 1.174-.106h.107c1.495 0 2.988.74 3.84 2.115.642-1.479 1.174-3.067 1.174-4.864l-.001.001zM9.706 2.211h-.32c-1.6 1.692-2.453 3.913-2.453 6.238v.107h.32c2.666 0 5.01 1.057 6.612 2.643 1.386.106 2.88.846 3.626 2.327a3.735 3.735 0 0 1 1.708-1.692v-.318c0-2.642-1.066-5.18-3.2-6.979-1.81-1.585-4.051-2.327-6.291-2.327l-.002.001zm2.667 9.094c-1.385-.846-3.093-1.268-4.8-1.268-.534 0-1.067 0-1.707.105-2.453.424-4.586 1.903-5.866 3.7.428 2.22 1.6 4.438 3.52 5.814 1.386-1.903 3.412-3.172 5.547-3.489v-.318c-.108-2.537 1.492-4.124 3.307-4.546l-.001.002zM4.16 21.773c-.746 1.374-1.067 2.961-1.067 4.441 0 .846.106 1.798.32 2.538A9.832 9.832 0 0 0 8 29.915c.746 0 1.492-.106 2.345-.317a10.367 10.367 0 0 1-.318-2.538c0-2.01.638-3.913 1.81-5.604-1.064-1.164-2.025-2.54-2.452-4.126-2.348.951-4.158 2.327-5.227 4.441l.003.002zm7.893 8.776l-.106.106.106-.106zm5.12 4.759c2.134-.952 3.947-2.643 4.907-4.864-2.453-.952-4.268-2.855-5.12-5.076-.746-.424-2.774-1.479-4.586-3.172-.641 1.372-1.068 2.852-1.068 4.334 0 1.268.214 2.537.854 3.806 1.068 2.432 2.988 4.122 5.014 4.97l-.001.002zm-5.014-4.759h-.106.106zm35.416-6.556l-8.215 9.622h7.147c.746 0 1.387.633 1.387 1.373s-.639 1.375-1.385 1.375H36.163c-.746 0-1.388-.74-1.388-1.48 0-.318.107-.739.428-1.058l8.212-9.622h-7.147c-.746 0-1.386-.635-1.386-1.374 0-.74.64-1.375 1.385-1.375h10.134c.957 0 1.598.74 1.598 1.585 0 .317-.106.635-.428.951l.004.003zm16.639 6.028H53.44c.214 2.327 2.026 4.017 4.586 4.017 1.814 0 3.308-.74 4.586-1.903.215-.21.534-.315.856-.315.426 0 .852.21 1.064.527.215.211.322.529.322.846 0 .425-.217.849-.536 1.164C62.826 35.945 60.372 37 58.025 37c-4.48 0-7.894-3.593-7.894-7.823 0-4.44 3.522-7.824 7.787-7.824 4.266 0 7.573 3.382 7.573 7.824-.213.424-.746.846-1.28.846l.003-.002zm-6.506-6.134c-2.348 0-3.948 1.481-4.268 3.806h8.534c-.214-2.218-1.92-3.806-4.268-3.806h.002zM99.52 36.684c-.96 0-1.706-.742-1.706-1.694v-.845c-.958 1.691-2.878 2.643-5.014 2.643-4.476 0-7.464-3.383-7.464-7.824 0-4.442 3.094-7.826 7.466-7.826 2.242 0 4.162 1.058 5.014 2.643V14.9c0-.95.746-1.69 1.707-1.69.96 0 1.708.74 1.708 1.692v20.197c0 .846-.746 1.588-1.708 1.588l-.003-.002zm-6.188-12.69c-2.772 0-4.586 2.22-4.586 4.97 0 2.748 1.814 4.97 4.586 4.97 2.776 0 4.588-2.115 4.588-4.97 0-2.855-1.813-4.97-4.586-4.97h-.002zm25.283 6.027H107.84c.213 2.327 2.026 4.017 4.586 4.017 1.814 0 3.307-.74 4.586-1.903.214-.21.534-.315.854-.315.428 0 .853.21 1.174.527.212.211.318.529.318.846 0 .425-.212.849-.532 1.164-1.492 1.588-3.947 2.643-6.294 2.643-4.48 0-7.892-3.593-7.892-7.823 0-4.44 3.52-7.824 7.786-7.824 4.373 0 7.574 3.382 7.574 7.824-.107.424-.746.846-1.387.846v-.002zm-6.508-6.134c-2.348 0-3.947 1.481-4.268 3.806h8.536c-.214-2.218-1.92-3.806-4.268-3.806zm16.213 12.9c-1.706 0-3.946-.528-5.653-1.478-.534-.319-.853-.849-.853-1.27 0-.212.107-.316.107-.53.212-.528.64-.845 1.066-.845.213 0 .533.106.746.212 1.28.74 2.774 1.267 4.268 1.267 1.706 0 3.626-.53 3.626-1.798 0-1.057-.96-1.375-4.48-2.643-2.987-1.058-4.48-2.327-4.48-4.442 0-2.538 2.56-4.23 5.867-4.23 2.348 0 3.84.528 5.228 1.163.64.316.96.74.96 1.269 0 .212 0 .317-.107.528-.213.529-.746.952-1.28.952-.214 0-.32 0-.534-.106a8.811 8.811 0 0 0-4.055-.951c-1.814 0-2.986.424-2.986 1.479 0 1.164.96 1.376 3.52 2.222 3.2 1.057 5.441 2.114 5.441 4.758.106 2.327-2.134 4.442-6.4 4.442v.002zm22.08-.103c-.426 0-.96-.214-1.28-.53l-5.76-6.45-1.706 1.374v4.019c0 .954-.75 1.693-1.71 1.693s-1.706-.74-1.706-1.691v-20.2c0-.95.747-1.69 1.707-1.69.96 0 1.707.74 1.707 1.691v12.268l7.145-5.604c.319-.211.641-.318.962-.318.533 0 .96.212 1.279.635.214.316.428.633.428.95 0 .53-.214.953-.641 1.269l-4.906 3.807 5.653 6.344c.213.315.428.634.428 1.057-.11.634-.746 1.269-1.602 1.374l.001.002zM75.518 20.927c-3.945 0-7.146 3.067-7.146 7.085v6.978c0 .952.746 1.692 1.707 1.692a1.68 1.68 0 0 0 1.706-1.694v-6.874c0-2.325 1.28-4.228 3.84-4.228 2.454 0 3.84 1.903 3.84 4.23v6.872c0 .952.747 1.692 1.708 1.692.96 0 1.706-.741 1.706-1.693V28.01c-.215-4.019-3.522-7.085-7.362-7.085v.002zm72.642-6.132c0-.952.746-1.693 1.706-1.693s1.707.74 1.707 1.693c0 .951-.746 1.69-1.705 1.69-.96 0-1.707-.739-1.707-1.693v.003zm2.987 0c0-.74-.534-1.27-1.28-1.27-.747 0-1.281.529-1.281 1.27 0 .74.533 1.374 1.28 1.374.746 0 1.28-.635 1.28-1.374zm-2.028.74v-1.48c0-.107.108-.212.214-.212h.636c.428 0 .642.209.642.526a.58.58 0 0 1-.32.529l.213.53v.105c0 .107-.107.212-.213.212-.107 0-.214-.109-.214-.109l-.32-.527h-.32v.422c0 .106-.107.212-.214.212 0 0-.107-.107-.107-.213l.003.004zm1.068-1.058c0-.106-.108-.211-.32-.211h-.321v.315h.32c.213.11.32 0 .32-.104z"/></g></svg>